<?xml version="1.0" standalone="no"?>
<!DOCTYPE svg PUBLIC "-//W3C//DTD SVG 20010904//EN"
 "http://www.w3.org/TR/2001/REC-SVG-20010904/DTD/svg10.dtd">
<svg version="1.0" xmlns="http://www.w3.org/2000/svg"
 width="420.000000pt" height="420.000000pt" viewBox="0 0 420.000000 420.000000"
 preserveAspectRatio="xMidYMid meet">
<metadata>
Created by potrace 1.14, written by Peter Selinger 2001-2017
</metadata>
<g transform="translate(0.000000,420.000000) scale(0.100000,-0.100000)"
fill="#000000" stroke="none">
<path d="M1459 3846 c-2 -2 -53 -6 -114 -10 -246 -15 -382 -41 -529 -103 -115
-48 -215 -130 -286 -233 -98 -145 -144 -319 -167 -640 -18 -236 -8 -1510 12
-1660 1 -14 6 -50 10 -80 3 -30 10 -71 15 -90 5 -19 14 -57 21 -85 60 -239
225 -424 449 -500 84 -29 180 -51 255 -60 28 -4 61 -8 75 -10 189 -28 1648
-28 1800 0 14 2 46 7 71 9 36 4 177 34 239 51 33 10 131 56 175 84 61 38 177
159 211 221 68 123 97 225 129 453 16 115 20 306 20 902 0 663 -4 798 -30 990
-53 393 -245 619 -596 703 -94 22 -117 26 -319 48 -57 7 -1435 16 -1441 10z
m297 -958 c19 -21 34 -48 35 -60 5 -109 -39 -151 -171 -162 -432 -37 -665
-506 -434 -873 121 -190 356 -294 572 -252 81 16 71 13 107 28 17 6 36 14 43
16 7 3 39 22 71 44 144 98 235 255 248 426 10 127 55 180 147 172 42 -4 55
-10 83 -41 38 -41 42 -63 30 -184 -9 -90 -42 -195 -92 -289 -112 -213 -288
-351 -540 -423 -22 -7 -98 -13 -170 -15 -112 -4 -142 -1 -223 20 -306 79 -526
301 -609 615 -24 91 -23 290 1 385 22 83 81 214 127 282 46 66 145 163 215
210 147 97 288 141 447 139 77 -1 79 -2 113 -38z m947 26 c397 -83 677 -438
662 -839 -4 -113 -7 -134 -36 -224 -80 -253 -271 -449 -521 -535 -97 -34 -137
-40 -241 -41 l-89 0 -34 37 c-19 21 -34 48 -35 60 -5 109 39 151 171 162 341
29 581 345 513 675 -17 82 -15 78 -38 126 -144 307 -524 426 -808 253 -149
-92 -259 -260 -273 -422 -3 -28 -6 -65 -8 -83 -12 -108 -152 -151 -225 -67
-33 37 -34 41 -32 119 8 246 127 474 330 629 178 136 444 196 664 150z"/>
</g>
</svg>
